<svg width="83" height="104" viewBox="0 0 83 104" fill="none" xmlns="http://www.w3.org/2000/svg">
<path d="M9.15213e-09 15.6883V50.4864C9.15213e-09 61.5905 4.44383 72.1095 11.887 78.6276L39.9761 103.221C40.0665 103.288 40.1633 103.345 40.265 103.393L40.276 103.4C40.3274 103.439 40.381 103.476 40.4365 103.509C40.4553 103.517 40.4748 103.521 40.4939 103.529C40.7004 103.616 40.9223 103.661 41.1464 103.661C41.3705 103.661 41.5923 103.616 41.7988 103.529C41.8179 103.521 41.8372 103.517 41.8558 103.509C41.9123 103.475 41.9667 103.439 42.0189 103.399L42.0265 103.394C42.1286 103.346 42.2258 103.288 42.3165 103.221L70.4068 78.6276C77.8491 72.1107 82.2926 61.5905 82.2926 50.4864V15.6883C82.2926 15.321 82.1787 14.9627 81.9666 14.6628C81.7545 14.3629 81.4547 14.1362 81.1083 14.0139L72.2921 10.8986L72.2905 10.8975L41.7383 0.10239C41.3554 -0.03413 40.9371 -0.03413 40.5542 0.10239L10.0023 10.8975L10.0008 10.8983L1.18395 14.0139C0.837677 14.1363 0.537875 14.363 0.325838 14.6629C0.113802 14.9628 -3.72682e-05 15.321 9.15213e-09 15.6883ZM21.2037 82.0625L14.2273 75.9544C7.54254 70.1022 3.552 60.5813 3.552 50.4864V16.9441L8.81809 15.0833V50.4864C8.81809 61.5072 12.2569 71.9685 18.0187 78.4693L21.2037 82.0625ZM69.9223 50.4864C69.9223 60.6654 66.8179 70.2456 61.6165 76.1126L42.9223 97.2028V66.4539H43.9698C45.2181 66.4524 46.4149 65.9559 47.2976 65.0732C48.1803 64.1905 48.6769 62.9938 48.6784 61.7455V49.892H60.5331C61.7814 49.8905 62.9781 49.3939 63.8608 48.5112C64.7435 47.6285 65.24 46.4317 65.2414 45.1834V39.536C65.2399 38.2878 64.7434 37.091 63.8607 36.2084C62.9781 35.3257 61.7814 34.8292 60.5331 34.8277H48.6784V22.9731C48.6769 21.7247 48.1804 20.528 47.2976 19.6452C46.4149 18.7625 45.2182 18.266 43.9698 18.2645H42.9223V4.28784L69.9223 13.8282V50.4864ZM43.9698 21.8168C44.2764 21.8172 44.5703 21.9392 44.7871 22.1559C45.0039 22.3727 45.1259 22.6665 45.1264 22.9731V36.6038C45.1266 37.0748 45.3137 37.5264 45.6467 37.8594C45.9798 38.1924 46.4314 38.3796 46.9023 38.3797H60.5331C60.8396 38.3802 61.1334 38.5022 61.3502 38.719C61.5669 38.9357 61.6889 39.2295 61.6894 39.536V45.1834C61.6889 45.4899 61.5669 45.7837 61.3502 46.0005C61.1334 46.2172 60.8396 46.3392 60.5331 46.3397H46.9023C46.4313 46.3398 45.9796 46.527 45.6466 46.8602C45.3135 47.1933 45.1265 47.645 45.1264 48.1161V61.7455C45.1259 62.052 45.0038 62.3458 44.787 62.5626C44.5702 62.7793 44.2764 62.9013 43.9698 62.9018H38.3228C38.0162 62.9013 37.7224 62.7793 37.5057 62.5626C37.2889 62.3458 37.1669 62.052 37.1665 61.7455V48.1161C37.1664 47.645 36.9792 47.1932 36.6461 46.8601C36.3129 46.527 35.8612 46.3398 35.3901 46.3397H21.7607C21.4542 46.3392 21.1603 46.2173 20.9436 46.0005C20.7268 45.7838 20.6049 45.4899 20.6044 45.1834V39.536C20.6049 39.2295 20.7269 38.9357 20.9436 38.7189C21.1604 38.5022 21.4542 38.3802 21.7607 38.3797H35.3901C35.8611 38.3796 36.3128 38.1925 36.6459 37.8595C36.979 37.5265 37.1662 37.0748 37.1665 36.6038V22.9731C37.1669 22.6665 37.2889 22.3727 37.5056 22.156C37.7224 21.9392 38.0162 21.8172 38.3228 21.8168H43.9698ZM39.3703 18.2645H38.3228C37.0744 18.266 35.8776 18.7625 34.9949 19.6452C34.1122 20.528 33.6157 21.7247 33.6142 22.9731V34.8277H21.7607C20.5124 34.8292 19.3156 35.3257 18.4329 36.2083C17.5502 37.091 17.0536 38.2877 17.0521 39.536V45.1834C17.0536 46.4317 17.5501 47.6285 18.4328 48.5112C19.3156 49.394 20.5124 49.8905 21.7607 49.892H33.6142V61.7455C33.6157 62.9938 34.1123 64.1905 34.995 65.0732C35.8777 65.9559 37.0744 66.4524 38.3228 66.4539H39.3703V97.2027L20.6773 76.1127C15.4749 70.2442 12.3704 60.6644 12.3704 50.4864V13.8282L39.3703 4.28784V18.2645ZM64.2738 78.4693C70.036 71.9693 73.4745 61.5093 73.4745 50.4864V15.0833L78.7403 16.9441V50.4864C78.7403 60.582 74.7499 70.1034 68.0665 75.9543L61.0862 82.0656L64.2738 78.4693Z" fill="white"/>
</svg>
