<svg width="262" height="276" viewBox="0 0 262 276" fill="none" xmlns="http://www.w3.org/2000/svg">
<path d="M131 263.817C199.179 263.817 254.449 230.202 254.449 188.734C254.449 147.267 199.179 113.651 131 113.651C62.8209 113.651 7.55084 147.267 7.55084 188.734C7.55084 230.202 62.8209 263.817 131 263.817Z" fill="#F0F0F0"/>
<path d="M105.455 245.629C128.966 245.629 148.025 234.038 148.025 219.74C148.025 205.442 128.966 193.851 105.455 193.851C81.9444 193.851 62.8852 205.442 62.8852 219.74C62.8852 234.038 81.9444 245.629 105.455 245.629Z" fill="#E0E0E0"/>
<path d="M226.515 187.349L221.521 184.313C221.521 184.313 220.3 173.052 221.112 164.33C222.255 152.076 229.769 137.327 238.729 140.793C247.69 144.26 234.621 156.735 231.713 167.129C228.805 177.523 226.515 187.349 226.515 187.349Z" fill="#1CA4AC"/>
<path opacity="0.15" d="M226.515 187.349L221.521 184.313C221.521 184.313 220.3 173.052 221.112 164.33C222.255 152.076 229.769 137.327 238.729 140.793C247.69 144.26 234.621 156.735 231.713 167.129C228.805 177.523 226.515 187.349 226.515 187.349Z" fill="black"/>
<path d="M223.889 186.074C223.969 186.069 224.044 186.032 224.098 185.97C224.152 185.908 224.181 185.826 224.178 185.742C223.303 158.512 236.172 144.812 236.298 144.679C236.355 144.619 236.387 144.538 236.387 144.453C236.387 144.368 236.355 144.287 236.298 144.227C236.27 144.197 236.237 144.174 236.201 144.158C236.164 144.142 236.125 144.133 236.086 144.133C236.046 144.133 236.007 144.142 235.971 144.158C235.934 144.174 235.901 144.197 235.873 144.227C235.737 144.359 222.684 158.258 223.57 185.765C223.571 185.807 223.581 185.849 223.597 185.888C223.614 185.926 223.638 185.961 223.668 185.99C223.698 186.019 223.733 186.041 223.771 186.055C223.809 186.07 223.849 186.076 223.889 186.074Z" fill="white"/>
<path d="M229.653 189.242L226.101 187.084C226.101 187.084 225.493 179.356 229.093 169.972C232.237 161.802 239.992 155.018 243.901 156.442C247.81 157.866 247.711 160.787 245.803 163.85C243.896 166.914 232.31 174.206 229.653 189.242Z" fill="#1CA4AC"/>
<path d="M227.778 188.425C227.858 188.424 227.934 188.39 227.991 188.33C228.048 188.27 228.08 188.189 228.081 188.105C228.008 170.883 243.356 159.246 243.513 159.131C243.546 159.107 243.574 159.077 243.595 159.041C243.616 159.006 243.631 158.966 243.637 158.925C243.643 158.884 243.642 158.842 243.632 158.801C243.623 158.76 243.605 158.722 243.581 158.689C243.535 158.621 243.465 158.575 243.387 158.56C243.308 158.546 243.228 158.564 243.162 158.612C243.005 158.728 227.406 170.562 227.474 188.105C227.474 188.19 227.506 188.271 227.563 188.331C227.62 188.391 227.697 188.425 227.778 188.425Z" fill="white"/>
<path d="M41.7418 180.587L46.353 177.308C46.353 177.308 48.3809 164.612 46.4945 153.412C43.8431 137.702 33.536 132.48 29.868 134.136C26.2 135.792 25.414 140.467 32.2627 149.432C36.3237 154.704 41.6004 165.959 41.7418 180.587Z" fill="#1CA4AC"/>
<g opacity="0.15">
<path d="M41.7418 180.587L46.353 177.308C46.353 177.308 48.3809 164.612 46.4945 153.412C43.8431 137.702 33.536 132.48 29.868 134.136C26.2 135.792 25.414 140.467 32.2627 149.432C36.3237 154.704 41.6004 165.959 41.7418 180.587Z" fill="black"/>
</g>
<path d="M43.3243 174.294H43.2772C43.23 174.291 43.1841 174.277 43.1423 174.254C43.1005 174.231 43.0639 174.199 43.0347 174.16C43.0055 174.121 42.9845 174.076 42.973 174.027C42.9615 173.979 42.9598 173.929 42.968 173.88C44.6343 159.092 38.7079 143.04 32.2574 136.653C32.1954 136.587 32.1605 136.498 32.1605 136.405C32.1605 136.312 32.1954 136.222 32.2574 136.156C32.2882 136.123 32.3249 136.097 32.3653 136.079C32.4058 136.061 32.4493 136.052 32.4932 136.052C32.5372 136.052 32.5806 136.061 32.6211 136.079C32.6616 136.097 32.6983 136.123 32.729 136.156C39.3 142.659 45.3365 158.976 43.6492 173.979C43.6393 174.064 43.6012 174.142 43.5417 174.2C43.4822 174.257 43.4051 174.291 43.3243 174.294Z" fill="white"/>
<path d="M29.6689 189.165C28.9353 189.629 26.7974 187.956 26.2052 187.553C25.1904 186.855 24.3638 185.893 23.8053 184.76C23.1788 183.475 22.9462 182.017 23.1398 180.587C23.2472 179.84 23.403 179.103 23.6062 178.379C23.7896 177.656 23.973 176.933 24.1302 176.204C24.3626 175.495 24.4518 174.743 24.3922 173.996C24.1878 172.522 22.925 171.512 21.7722 170.645C20.5041 169.679 19.1522 168.404 19.1522 166.627C19.2168 165.23 19.7242 163.897 20.5932 162.84C21.3792 161.736 22.3224 160.776 23.0298 159.622C23.583 158.822 23.8653 157.85 23.8315 156.862C23.7404 156.252 23.5337 155.669 23.2237 155.145C22.6054 153.997 21.8036 152.937 21.3687 151.717C20.9338 150.497 20.9652 148.93 21.8927 148.019C22.6316 147.274 23.7582 147.152 24.78 147.202C25.7428 147.303 26.6729 147.625 27.5048 148.146C30.2138 149.664 31.8068 152.976 34.6731 154.129C35.7787 154.571 36.9839 154.648 38.1315 154.946C39.279 155.244 40.4633 155.835 41.0135 156.934C42.0981 159.114 40.2065 161.863 40.982 164.176C41.6737 166.229 43.602 166.98 44.692 168.818C45.1343 169.634 45.3179 170.578 45.216 171.512C45.1545 173.088 44.8188 174.639 44.2256 176.088C43.5433 177.59 42.7733 179.047 41.92 180.449C41.92 180.449 29.7789 189.093 29.6689 189.165Z" fill="#1CA4AC"/>
<path d="M36.7534 184.589C36.7093 184.588 36.6658 184.578 36.6254 184.56C36.585 184.541 36.5484 184.515 36.5177 184.481C36.4871 184.448 36.463 184.409 36.4467 184.366C36.4305 184.322 36.4225 184.276 36.4232 184.23C36.7167 170.253 30.1876 154.974 25.566 150.558C25.5003 150.496 25.4607 150.408 25.4557 150.315C25.4508 150.222 25.481 150.131 25.5398 150.061C25.5705 150.028 25.6072 150.002 25.6477 149.984C25.6882 149.966 25.7316 149.957 25.7756 149.957C25.8195 149.957 25.8629 149.966 25.9034 149.984C25.9439 150.002 25.9806 150.028 26.0114 150.061C30.7274 154.532 37.3874 170.077 37.0887 184.247C37.088 184.292 37.0788 184.337 37.0616 184.379C37.0444 184.421 37.0195 184.459 36.9883 184.491C36.9572 184.523 36.9204 184.548 36.8801 184.564C36.8398 184.581 36.7967 184.59 36.7534 184.589Z" fill="white"/>
<path d="M34.3063 167.56C34.2753 167.568 34.2429 167.568 34.2119 167.56C29.9256 166.257 24.6123 166.124 24.5599 166.119C24.5161 166.118 24.4728 166.108 24.4327 166.09C24.3925 166.071 24.3563 166.045 24.3261 166.011C24.2958 165.978 24.2722 165.938 24.2566 165.895C24.2409 165.852 24.2336 165.806 24.235 165.76C24.2342 165.713 24.2425 165.667 24.2596 165.624C24.2766 165.581 24.3019 165.542 24.334 165.51C24.366 165.478 24.404 165.453 24.4456 165.437C24.4872 165.421 24.5314 165.415 24.5756 165.418C24.628 165.418 30.0252 165.556 34.3953 166.881C34.4798 166.908 34.5508 166.968 34.593 167.05C34.6352 167.132 34.6451 167.227 34.6207 167.317C34.6003 167.388 34.5586 167.45 34.5019 167.493C34.4452 167.537 34.3766 167.56 34.3063 167.56Z" fill="white"/>
<path d="M157.808 170.976L155.822 169.768C155.491 169.541 155.216 169.236 155.018 168.876C154.82 168.516 154.706 168.113 154.685 167.698V80.7466C154.706 80.3323 154.82 79.9291 155.017 79.5696C155.213 79.21 155.487 78.9041 155.817 78.6766L211.02 45.1039C211.372 44.9162 211.76 44.8184 212.155 44.8184C212.549 44.8184 212.937 44.9162 213.289 45.1039L215.275 46.3128C215.606 46.5391 215.881 46.8446 216.079 47.2043C216.276 47.564 216.391 47.9678 216.412 48.3828V135.334C216.39 135.748 216.277 136.151 216.08 136.511C215.884 136.87 215.61 137.176 215.28 137.404L160.077 170.982C159.725 171.17 159.336 171.268 158.942 171.267C158.547 171.266 158.159 171.166 157.808 170.976Z" fill="#455A64"/>
<path d="M216.412 48.1896C216.333 47.5714 215.857 47.345 215.285 47.6928L160.077 81.271C159.743 81.4916 159.467 81.7972 159.275 82.1597L155.015 79.5708C155.205 79.2056 155.481 78.8978 155.817 78.6766L211.02 45.1039C211.372 44.9162 211.76 44.8184 212.155 44.8184C212.549 44.8184 212.937 44.9162 213.289 45.1039L215.275 46.3128C215.582 46.5208 215.842 46.7962 216.038 47.1202C216.235 47.4441 216.362 47.8089 216.412 48.1896Z" fill="#455A64"/>
<path d="M159.883 171.076C159.547 171.219 159.187 171.285 158.825 171.268C158.464 171.252 158.11 171.155 157.787 170.982L155.796 169.768C155.466 169.54 155.192 169.234 154.996 168.875C154.799 168.515 154.685 168.112 154.664 167.698V80.7466C154.677 80.3315 154.791 79.9268 154.994 79.5708L159.254 82.1597C159.047 82.5162 158.931 82.9232 158.919 83.341V170.292C158.94 170.976 159.348 171.291 159.883 171.076Z" fill="#263238"/>
<path d="M158.94 83.352V170.292C158.94 171.054 159.464 171.363 160.077 170.982L215.28 137.404C215.61 137.176 215.884 136.87 216.08 136.511C216.277 136.151 216.39 135.748 216.412 135.334V48.3828C216.412 47.621 215.888 47.3119 215.28 47.6928L160.077 81.271C159.744 81.4984 159.468 81.8056 159.27 82.1673C159.073 82.5291 158.959 82.9351 158.94 83.352Z" fill="#37474F"/>
<path d="M146.049 116.472C145.337 116.025 142.03 114.043 141.857 113.938C141.723 113.854 141.608 113.738 141.521 113.6C141.434 113.463 141.378 113.306 141.356 113.142C141.335 112.979 141.348 112.812 141.396 112.654C141.444 112.497 141.524 112.353 141.632 112.233L154.685 97.4832L158.94 100.056L145.892 114.816C145.79 114.931 145.712 115.068 145.664 115.217C145.615 115.366 145.598 115.525 145.613 115.682C145.628 115.839 145.675 115.99 145.75 116.127C145.825 116.263 145.927 116.381 146.049 116.472Z" fill="#455A64"/>
<path d="M158.94 100.072L145.892 114.816C145.747 114.979 145.653 115.184 145.621 115.405C145.589 115.626 145.621 115.852 145.714 116.053C145.807 116.253 145.955 116.42 146.139 116.53C146.323 116.641 146.535 116.69 146.746 116.671L158.94 115.611V100.072Z" fill="#37474F"/>
<path d="M187.676 73.5264C194.111 69.6127 199.324 72.7867 199.324 80.6141C199.324 88.4414 194.111 97.9524 187.676 101.866C181.241 105.78 176.027 102.606 176.027 94.7839C176.027 86.9621 181.241 77.4401 187.676 73.5264Z" fill="#1CA4AC"/>
<path d="M187.592 79.6867C189.688 78.4171 191.37 79.4438 191.37 81.983C191.299 83.3633 190.919 84.7064 190.263 85.9034C189.606 87.1003 188.691 88.1174 187.592 88.872C185.496 90.1416 183.809 89.1149 183.809 86.5757C183.881 85.1949 184.261 83.8515 184.918 82.6545C185.576 81.4575 186.492 80.4407 187.592 79.6867Z" fill="white"/>
<path d="M195.043 93.2218C195.043 89.0542 192.261 87.3595 188.834 89.4461L186.691 90.7488C183.264 92.8354 180.481 97.9248 180.481 102.081V103.224C181.128 103.442 181.804 103.552 182.483 103.55C184.321 103.484 186.111 102.913 187.676 101.894C190.655 99.9609 193.175 97.3364 195.043 94.2209V93.2218Z" fill="white"/>
<path d="M180.298 140.611L195.054 131.635C195.683 131.255 196.191 131.564 196.191 132.325V137.332C196.169 137.747 196.055 138.151 195.858 138.511C195.66 138.87 195.385 139.176 195.054 139.402L180.298 148.378C179.669 148.758 179.161 148.449 179.161 147.688V142.681C179.182 142.266 179.296 141.862 179.494 141.502C179.692 141.143 179.967 140.837 180.298 140.611Z" fill="#1CA4AC"/>
<path d="M173.072 129.427L202.264 111.664C203.013 111.206 203.626 111.576 203.626 112.492V114.352C203.601 114.85 203.464 115.334 203.227 115.766C202.991 116.198 202.661 116.564 202.264 116.836L173.056 134.6C172.307 135.058 171.699 134.688 171.699 133.772V131.928C171.723 131.426 171.86 130.938 172.099 130.503C172.337 130.068 172.671 129.699 173.072 129.427Z" fill="#FAFAFA"/>
<path d="M176.488 116.571C176.887 116.328 177.196 116.29 177.416 116.461C177.636 116.632 177.746 117.013 177.746 117.598C177.757 118.132 177.644 118.661 177.416 119.138C177.21 119.57 176.887 119.927 176.488 120.165L175.702 120.645V122.428C175.701 122.489 175.687 122.55 175.661 122.605C175.642 122.655 175.609 122.697 175.566 122.726L175.168 122.969C175.154 122.98 175.138 122.986 175.121 122.986C175.104 122.986 175.087 122.98 175.074 122.969C175.045 122.932 175.032 122.884 175.037 122.837V117.675C175.037 117.614 175.049 117.554 175.074 117.499C175.094 117.45 175.126 117.408 175.168 117.377L176.488 116.571ZM175.702 119.646L176.462 119.182C176.646 119.073 176.801 118.918 176.913 118.73C177.032 118.508 177.09 118.256 177.081 118.001C177.081 117.703 177.023 117.532 176.913 117.482C176.835 117.462 176.754 117.461 176.676 117.48C176.598 117.498 176.525 117.534 176.462 117.587L175.702 118.051V119.646Z" fill="#FAFAFA"/>
<path d="M179.942 114.468C179.994 114.435 180.036 114.435 180.062 114.468C180.096 114.518 180.119 114.574 180.13 114.634L181.341 118.95C181.341 118.95 181.341 118.984 181.341 119C181.34 119.062 181.326 119.122 181.299 119.177C181.28 119.227 181.247 119.269 181.204 119.298L180.848 119.514C180.785 119.552 180.738 119.558 180.712 119.514C180.686 119.486 180.668 119.452 180.659 119.414L180.445 118.658L178.873 119.607L178.663 120.623C178.648 120.678 178.629 120.732 178.605 120.783C178.579 120.85 178.531 120.905 178.469 120.938L178.113 121.153C178.1 121.165 178.083 121.171 178.066 121.171C178.048 121.171 178.032 121.165 178.019 121.153C177.991 121.117 177.978 121.072 177.982 121.026C177.979 121.006 177.979 120.985 177.982 120.965L179.187 115.18C179.202 115.095 179.224 115.012 179.255 114.932C179.281 114.874 179.323 114.826 179.376 114.794L179.942 114.468ZM180.214 117.813L179.69 115.865L179.166 118.47L180.214 117.813Z" fill="#FAFAFA"/>
<path d="M183.175 112.42C183.35 112.304 183.55 112.234 183.756 112.216C183.902 112.202 184.049 112.237 184.176 112.315C184.29 112.394 184.38 112.508 184.432 112.641C184.49 112.777 184.522 112.923 184.527 113.072C184.53 113.133 184.517 113.194 184.49 113.248C184.471 113.298 184.438 113.341 184.396 113.37L184.05 113.58C183.992 113.613 183.95 113.618 183.924 113.58C183.892 113.557 183.865 113.527 183.845 113.491C183.824 113.442 183.794 113.397 183.756 113.36C183.718 113.323 183.674 113.294 183.625 113.276C183.466 113.252 183.304 113.296 183.175 113.397C183.09 113.455 183.009 113.52 182.934 113.591C182.856 113.666 182.787 113.751 182.729 113.844C182.674 113.934 182.628 114.031 182.593 114.132C182.562 114.228 182.546 114.328 182.546 114.43C182.54 114.523 182.556 114.616 182.593 114.7C182.609 114.73 182.632 114.755 182.659 114.773C182.687 114.791 182.718 114.802 182.75 114.805C182.847 114.823 182.947 114.823 183.044 114.805L183.5 114.7C183.669 114.647 183.847 114.625 184.024 114.634C184.15 114.633 184.273 114.676 184.375 114.755C184.471 114.84 184.54 114.954 184.574 115.081C184.625 115.26 184.648 115.446 184.642 115.633C184.642 115.88 184.608 116.125 184.542 116.362C184.478 116.605 184.385 116.839 184.265 117.057C184.138 117.281 183.986 117.488 183.814 117.675C183.638 117.868 183.437 118.033 183.217 118.167C183.055 118.27 182.878 118.343 182.693 118.382C182.542 118.412 182.386 118.399 182.242 118.343C182.111 118.279 182.003 118.173 181.933 118.04C181.847 117.869 181.801 117.68 181.797 117.488C181.796 117.425 181.809 117.363 181.833 117.306C181.856 117.259 181.891 117.219 181.933 117.19L182.279 116.98C182.331 116.947 182.373 116.936 182.404 116.952C182.436 116.969 182.457 116.996 182.478 117.046C182.499 117.103 182.528 117.157 182.562 117.206C182.594 117.254 182.64 117.291 182.693 117.311C182.762 117.328 182.833 117.328 182.902 117.311C183.013 117.283 183.12 117.237 183.217 117.173C183.318 117.112 183.415 117.042 183.505 116.963C183.681 116.816 183.821 116.627 183.914 116.411C183.955 116.301 183.977 116.183 183.976 116.064C183.981 116.02 183.978 115.976 183.966 115.935C183.954 115.893 183.935 115.854 183.908 115.821C183.88 115.794 183.847 115.775 183.81 115.763C183.774 115.752 183.736 115.749 183.699 115.754C183.58 115.76 183.462 115.78 183.348 115.815C183.211 115.848 183.054 115.887 182.871 115.92C182.73 115.957 182.585 115.968 182.441 115.953C182.328 115.945 182.22 115.897 182.137 115.815C182.047 115.722 181.983 115.603 181.954 115.473C181.912 115.281 181.892 115.085 181.896 114.888C181.896 114.645 181.929 114.403 181.996 114.17C182.058 113.931 182.15 113.701 182.268 113.486C182.381 113.272 182.519 113.074 182.677 112.895C182.821 112.713 182.988 112.553 183.175 112.42Z" fill="#FAFAFA"/>
<path d="M186.617 110.334C186.792 110.214 186.992 110.141 187.199 110.124C187.345 110.111 187.492 110.146 187.618 110.223C187.73 110.304 187.818 110.417 187.87 110.549C187.927 110.685 187.959 110.831 187.964 110.98C187.97 111.041 187.957 111.103 187.927 111.156C187.909 111.206 187.876 111.249 187.833 111.278L187.487 111.487C187.435 111.521 187.393 111.532 187.361 111.487C187.328 111.465 187.302 111.432 187.288 111.394C187.24 111.297 187.16 111.222 187.063 111.184C186.985 111.172 186.905 111.176 186.828 111.197C186.752 111.218 186.68 111.255 186.617 111.305C186.53 111.362 186.447 111.426 186.371 111.498C186.295 111.574 186.228 111.659 186.172 111.752C186.114 111.841 186.068 111.938 186.036 112.039C186.003 112.135 185.985 112.236 185.983 112.338C185.977 112.43 185.993 112.523 186.03 112.608C186.047 112.638 186.069 112.663 186.097 112.681C186.124 112.699 186.155 112.71 186.188 112.713C186.285 112.731 186.384 112.731 186.481 112.713L186.937 112.608C187.107 112.558 187.284 112.536 187.461 112.542C187.588 112.541 187.711 112.583 187.812 112.663C187.908 112.749 187.979 112.862 188.016 112.989C188.063 113.169 188.084 113.355 188.079 113.541C188.079 113.787 188.045 114.033 187.98 114.27C187.916 114.513 187.822 114.747 187.702 114.965C187.576 115.191 187.425 115.4 187.251 115.589C187.074 115.777 186.875 115.94 186.659 116.075C186.498 116.178 186.32 116.251 186.135 116.29C185.986 116.32 185.832 116.307 185.69 116.251C185.556 116.189 185.446 116.082 185.375 115.948C185.289 115.778 185.244 115.588 185.244 115.396C185.238 115.334 185.251 115.272 185.281 115.219C185.3 115.169 185.333 115.126 185.375 115.098L185.721 114.888C185.774 114.855 185.821 114.844 185.847 114.86C185.865 114.869 185.881 114.882 185.894 114.898C185.907 114.914 185.916 114.933 185.92 114.954C185.944 115.01 185.972 115.063 186.004 115.114C186.039 115.163 186.086 115.199 186.141 115.219C186.209 115.236 186.281 115.236 186.35 115.219C186.461 115.191 186.568 115.145 186.665 115.081C186.764 115.019 186.858 114.948 186.947 114.871C187.039 114.796 187.121 114.706 187.189 114.606C187.256 114.511 187.313 114.407 187.356 114.297C187.398 114.187 187.42 114.068 187.419 113.949C187.424 113.906 187.421 113.862 187.409 113.821C187.397 113.779 187.377 113.74 187.351 113.706C187.323 113.68 187.289 113.661 187.253 113.649C187.217 113.638 187.179 113.635 187.141 113.64C187.024 113.648 186.909 113.668 186.796 113.701C186.659 113.734 186.497 113.773 186.319 113.806C186.177 113.843 186.029 113.854 185.884 113.839C185.77 113.833 185.662 113.784 185.58 113.701C185.491 113.607 185.429 113.488 185.402 113.359C185.355 113.17 185.334 112.974 185.339 112.779C185.341 112.534 185.374 112.291 185.438 112.056C185.503 111.817 185.595 111.588 185.711 111.372C185.824 111.157 185.963 110.958 186.125 110.781C186.266 110.606 186.432 110.455 186.617 110.334Z" fill="#FAFAFA"/>
<path d="M190.437 111.024L190.013 113.668C190 113.747 189.979 113.825 189.95 113.9C189.93 113.959 189.891 114.01 189.84 114.043L189.442 114.286C189.389 114.319 189.353 114.319 189.326 114.286C189.291 114.241 189.271 114.185 189.269 114.126L188.64 109.462C188.64 109.462 188.64 109.417 188.64 109.401C188.642 109.339 188.656 109.279 188.682 109.224C188.702 109.175 188.735 109.133 188.776 109.103L189.138 108.882C189.168 108.869 189.202 108.869 189.232 108.882C189.264 108.882 189.285 108.926 189.295 109.014L189.709 112.155L190.071 109.798C190.08 109.74 190.096 109.682 190.118 109.627C190.138 109.557 190.183 109.498 190.243 109.462L190.647 109.213C190.705 109.18 190.746 109.186 190.773 109.213C190.795 109.248 190.811 109.288 190.82 109.329L191.187 111.245L191.601 107.601C191.606 107.53 191.625 107.46 191.658 107.397C191.683 107.356 191.715 107.32 191.753 107.292L192.114 107.071C192.128 107.061 192.144 107.055 192.161 107.055C192.178 107.055 192.195 107.061 192.208 107.071C192.223 107.09 192.235 107.111 192.242 107.133C192.249 107.156 192.252 107.18 192.25 107.204C192.252 107.226 192.252 107.248 192.25 107.27L191.622 112.696C191.611 112.776 191.592 112.854 191.564 112.928C191.54 112.987 191.5 113.037 191.449 113.072L191.045 113.315C190.998 113.342 190.961 113.342 190.935 113.315C190.909 113.264 190.887 113.21 190.872 113.154L190.437 111.024Z" fill="#FAFAFA"/>
<path d="M192.89 108.683C192.901 108.377 192.936 108.073 192.994 107.772C193.054 107.479 193.146 107.194 193.267 106.922C193.382 106.658 193.53 106.412 193.707 106.188C193.886 105.967 194.101 105.78 194.341 105.636C194.526 105.504 194.742 105.43 194.965 105.421C195.131 105.423 195.291 105.492 195.41 105.614C195.537 105.764 195.629 105.944 195.677 106.139C195.745 106.392 195.782 106.654 195.787 106.917C195.787 107.016 195.787 107.127 195.787 107.248C195.787 107.37 195.787 107.496 195.787 107.629C195.787 107.761 195.787 107.888 195.787 108.01C195.787 108.131 195.787 108.247 195.787 108.352C195.776 108.656 195.741 108.959 195.683 109.257C195.622 109.55 195.532 109.835 195.415 110.107C195.296 110.371 195.147 110.617 194.97 110.842C194.791 111.061 194.578 111.248 194.341 111.394C194.152 111.525 193.933 111.599 193.707 111.609C193.625 111.611 193.544 111.595 193.469 111.563C193.393 111.53 193.324 111.482 193.267 111.421C193.13 111.267 193.036 111.076 192.994 110.869C192.932 110.615 192.897 110.354 192.89 110.091C192.89 109.992 192.89 109.881 192.89 109.76C192.89 109.638 192.89 109.511 192.89 109.379C192.89 109.246 192.89 109.125 192.89 108.998C192.89 108.871 192.884 108.783 192.89 108.683ZM195.122 107.364C195.134 107.229 195.119 107.093 195.079 106.964C195.04 106.835 194.976 106.716 194.891 106.613C194.755 106.486 194.566 106.492 194.341 106.613C194.097 106.765 193.902 106.992 193.786 107.265C193.637 107.586 193.558 107.939 193.555 108.297C193.555 108.501 193.555 108.727 193.555 108.976C193.555 109.224 193.555 109.445 193.555 109.644C193.543 109.779 193.558 109.915 193.598 110.044C193.637 110.173 193.701 110.292 193.786 110.394C193.922 110.516 194.111 110.505 194.341 110.367C194.582 110.214 194.773 109.989 194.891 109.721C195.04 109.401 195.119 109.05 195.122 108.694C195.122 108.485 195.122 108.258 195.122 108.01C195.122 107.761 195.127 107.563 195.122 107.364Z" fill="#FAFAFA"/>
<path d="M198.072 103.434C198.486 103.185 198.795 103.147 199.01 103.329C199.137 103.477 199.232 103.652 199.287 103.843C199.342 104.034 199.357 104.235 199.33 104.433C199.334 104.808 199.279 105.181 199.167 105.537C199.061 105.868 198.895 106.176 198.68 106.442L199.361 108.004C199.363 108.03 199.363 108.056 199.361 108.082C199.361 108.131 199.351 108.18 199.33 108.225C199.315 108.265 199.29 108.3 199.256 108.324L198.837 108.578C198.769 108.617 198.722 108.623 198.69 108.578C198.663 108.549 198.64 108.516 198.622 108.479L197.978 107.005L197.323 107.403V109.268C197.323 109.329 197.311 109.39 197.286 109.445C197.264 109.493 197.232 109.535 197.192 109.566L196.793 109.809C196.78 109.821 196.764 109.827 196.746 109.827C196.729 109.827 196.712 109.821 196.699 109.809C196.684 109.792 196.673 109.772 196.665 109.751C196.658 109.729 196.655 109.705 196.657 109.682V104.521C196.659 104.46 196.673 104.399 196.699 104.345C196.718 104.295 196.751 104.252 196.793 104.223L198.072 103.434ZM197.333 106.404L198.072 105.984C198.253 105.878 198.407 105.728 198.523 105.548C198.644 105.335 198.702 105.089 198.69 104.841C198.69 104.543 198.633 104.378 198.523 104.345C198.363 104.322 198.201 104.365 198.072 104.466L197.359 104.897L197.333 106.404Z" fill="#FAFAFA"/>
<path d="M201.583 101.309C201.773 101.178 201.991 101.098 202.217 101.077C202.381 101.07 202.541 101.132 202.662 101.248C202.801 101.402 202.897 101.593 202.94 101.8C203.01 102.074 203.049 102.355 203.055 102.639C203.055 103.025 203.055 103.423 203.055 103.826C203.045 104.154 203.006 104.481 202.94 104.803C202.88 105.101 202.789 105.392 202.667 105.669C202.551 105.924 202.403 106.162 202.227 106.376C202.052 106.595 201.843 106.782 201.609 106.928L200.367 107.64C200.354 107.652 200.337 107.658 200.32 107.658C200.303 107.658 200.286 107.652 200.273 107.64C200.257 107.623 200.246 107.603 200.239 107.581C200.231 107.559 200.229 107.536 200.231 107.513V102.352C200.232 102.29 200.247 102.23 200.273 102.175C200.291 102.125 200.324 102.083 200.367 102.054L201.583 101.309ZM202.39 103.025C202.387 102.876 202.366 102.727 202.327 102.584C202.302 102.475 202.25 102.376 202.175 102.297C202.142 102.262 202.103 102.235 202.059 102.217C202.016 102.199 201.97 102.19 201.923 102.192C201.792 102.201 201.666 102.247 201.557 102.324L200.896 102.722V106.321L201.583 105.907C201.716 105.825 201.834 105.721 201.934 105.598C202.031 105.477 202.114 105.343 202.18 105.2C202.245 105.048 202.295 104.889 202.327 104.725C202.363 104.555 202.384 104.381 202.39 104.207C202.405 103.804 202.405 103.412 202.39 103.025Z" fill="#FAFAFA"/>
<path d="M129.627 21.1913C130.532 21.4033 131.403 21.749 132.216 22.218C132.994 22.6586 133.691 23.2418 134.275 23.9402C134.834 24.6121 135.248 25.4028 135.491 26.2586C135.738 27.1748 135.756 28.1427 135.543 29.0683C135.403 29.8022 135.127 30.4999 134.731 31.1218C134.37 31.6535 133.939 32.1292 133.452 32.5349C132.974 32.926 132.464 33.2714 131.927 33.5671L130.418 34.4117C129.964 34.6614 129.532 34.9553 129.129 35.2894C128.765 35.5839 128.485 35.9796 128.322 36.432C128.243 36.6387 128.11 36.8182 127.94 36.9509C127.859 37.0168 127.765 37.0626 127.666 37.0846C127.566 37.1066 127.462 37.1043 127.363 37.0778L125.142 36.559C125.035 36.5353 124.933 36.4895 124.843 36.4241C124.753 36.3587 124.677 36.2751 124.618 36.1781C124.555 36.0879 124.513 35.9835 124.496 35.8732C124.479 35.7629 124.486 35.6499 124.518 35.5433C124.697 34.8184 125.012 34.1389 125.446 33.545C125.841 33.0197 126.299 32.5504 126.808 32.1485C127.304 31.7659 127.83 31.428 128.38 31.1383C128.904 30.8568 129.428 30.5863 129.884 30.3158C130.308 30.0757 130.707 29.7889 131.073 29.4602C131.395 29.1765 131.618 28.7881 131.707 28.3562C131.791 27.9812 131.787 27.5905 131.695 27.2175C131.604 26.8445 131.428 26.5004 131.183 26.2145C130.571 25.5097 129.752 25.0414 128.857 24.8842C127.201 24.4978 125.804 25.0847 124.665 26.645C124.555 26.8154 124.416 26.9631 124.256 27.0811C124.075 27.1756 123.866 27.1914 123.674 27.1253L121.311 26.5733C121.143 26.539 120.994 26.4358 120.897 26.2862C120.846 26.2063 120.811 26.1157 120.796 26.0205C120.78 25.9252 120.785 25.8276 120.808 25.7342C121.009 24.9672 121.383 24.2627 121.898 23.6808C122.479 23.006 123.169 22.4452 123.936 22.0248C124.775 21.5624 125.679 21.2456 126.614 21.0864C127.615 20.9148 128.639 20.9505 129.627 21.1913ZM127.117 38.9546C127.325 39.006 127.506 39.1411 127.62 39.3309C127.735 39.5207 127.774 39.7502 127.73 39.9703L127.164 42.6751C127.145 42.7884 127.104 42.8961 127.042 42.9912C126.981 43.0863 126.901 43.1667 126.808 43.2271C126.72 43.2908 126.621 43.3345 126.516 43.3555C126.412 43.3764 126.304 43.374 126.2 43.3486L123.664 42.7358C123.556 42.7167 123.454 42.6732 123.363 42.6085C123.273 42.5437 123.197 42.4591 123.14 42.3605C123.081 42.2672 123.041 42.1624 123.022 42.0523C123.003 41.9422 123.006 41.8292 123.03 41.7202L123.601 39.0154C123.65 38.7961 123.778 38.6055 123.958 38.4839C124.138 38.3623 124.356 38.3193 124.565 38.364L127.117 38.9546Z" fill="#1CA4AC"/>
<path d="M132.425 47.0856C133.056 46.979 133.698 46.966 134.333 47.047C134.939 47.1228 135.527 47.3097 136.072 47.599C136.591 47.8826 137.048 48.2774 137.414 48.7582C137.742 49.2286 137.974 49.7664 138.093 50.3369C138.212 50.9074 138.216 51.4978 138.105 52.0702C138.006 52.5102 137.845 52.9324 137.629 53.3232C137.42 53.7033 137.178 54.0619 136.905 54.3941C136.638 54.7253 136.381 55.0399 136.146 55.3435C135.915 55.6264 135.71 55.9313 135.533 56.2543C135.367 56.5375 135.283 56.8656 135.292 57.1982C135.287 57.3537 135.246 57.5055 135.171 57.6398C135.133 57.7017 135.083 57.7544 135.024 57.7944C134.966 57.8344 134.9 57.8607 134.83 57.8717L133.258 58.1366C133.185 58.1507 133.11 58.1491 133.037 58.1321C132.964 58.115 132.895 58.0828 132.834 58.0373C132.772 57.9963 132.72 57.9404 132.683 57.8741C132.646 57.8079 132.624 57.7333 132.619 57.6564C132.553 57.1427 132.589 56.6203 132.724 56.1218C132.847 55.6806 133.023 55.2577 133.248 54.8633C133.468 54.4848 133.721 54.1282 134.003 53.7979C134.28 53.4667 134.527 53.1576 134.768 52.8595C134.983 52.5933 135.169 52.3026 135.323 51.9929C135.459 51.7263 135.509 51.4199 135.464 51.1207C135.425 50.8574 135.326 50.608 135.175 50.3936C135.025 50.1793 134.827 50.0065 134.6 49.8898C134.037 49.6031 133.399 49.5215 132.787 49.6579C132.233 49.7433 131.717 50.0071 131.311 50.4133C130.905 50.8195 130.628 51.3481 130.518 51.9266C130.487 52.0658 130.434 52.1984 130.361 52.3186C130.267 52.4233 130.14 52.4882 130.004 52.5007L128.349 52.7822C128.232 52.8057 128.112 52.7799 128.013 52.7105C127.963 52.674 127.92 52.6265 127.889 52.5713C127.857 52.5161 127.837 52.4544 127.83 52.3903C127.781 51.8426 127.862 51.2905 128.066 50.784C128.273 50.1946 128.578 49.6488 128.967 49.1722C129.393 48.6502 129.895 48.203 130.455 47.8474C131.059 47.4616 131.728 47.2029 132.425 47.0856ZM135.129 59.1468C135.201 59.1347 135.275 59.1378 135.346 59.1558C135.417 59.1738 135.484 59.2064 135.543 59.2517C135.605 59.2944 135.657 59.3505 135.697 59.4161C135.737 59.4818 135.763 59.5555 135.774 59.6326L136.067 61.5259C136.09 61.6795 136.054 61.8363 135.968 61.9624C135.881 62.0885 135.751 62.1736 135.606 62.1994L133.851 62.503C133.705 62.5267 133.556 62.489 133.437 62.3981C133.376 62.3548 133.324 62.2985 133.286 62.2329C133.247 62.1672 133.221 62.0938 133.211 62.0172L132.918 60.1238C132.905 60.0479 132.907 59.9698 132.924 59.8947C132.941 59.8195 132.973 59.7491 133.017 59.6878C133.059 59.6237 133.112 59.5695 133.174 59.5286C133.237 59.4877 133.306 59.4611 133.379 59.4504L135.129 59.1468Z" fill="#1CA4AC"/>
<g opacity="0.2">
<path d="M132.425 47.0856C133.056 46.979 133.698 46.966 134.333 47.047C134.939 47.1228 135.527 47.3097 136.072 47.599C136.591 47.8826 137.048 48.2774 137.414 48.7582C137.742 49.2286 137.974 49.7664 138.093 50.3369C138.212 50.9074 138.216 51.4978 138.105 52.0702C138.006 52.5102 137.845 52.9324 137.629 53.3232C137.42 53.7033 137.178 54.0619 136.905 54.3941C136.638 54.7253 136.381 55.0399 136.146 55.3435C135.915 55.6264 135.71 55.9313 135.533 56.2543C135.367 56.5375 135.283 56.8656 135.292 57.1982C135.287 57.3537 135.246 57.5055 135.171 57.6398C135.133 57.7017 135.083 57.7544 135.024 57.7944C134.966 57.8344 134.9 57.8607 134.83 57.8717L133.258 58.1366C133.185 58.1507 133.11 58.1491 133.037 58.1321C132.964 58.115 132.895 58.0828 132.834 58.0373C132.772 57.9963 132.72 57.9404 132.683 57.8741C132.646 57.8079 132.624 57.7333 132.619 57.6564C132.553 57.1427 132.589 56.6203 132.724 56.1218C132.847 55.6806 133.023 55.2577 133.248 54.8633C133.468 54.4848 133.721 54.1282 134.003 53.7979C134.28 53.4667 134.527 53.1576 134.768 52.8595C134.983 52.5933 135.169 52.3026 135.323 51.9929C135.459 51.7263 135.509 51.4199 135.464 51.1207C135.425 50.8574 135.326 50.608 135.175 50.3936C135.025 50.1793 134.827 50.0065 134.6 49.8898C134.037 49.6031 133.399 49.5215 132.787 49.6579C132.233 49.7433 131.717 50.0071 131.311 50.4133C130.905 50.8195 130.628 51.3481 130.518 51.9266C130.487 52.0658 130.434 52.1984 130.361 52.3186C130.267 52.4233 130.14 52.4882 130.004 52.5007L128.349 52.7822C128.232 52.8057 128.112 52.7799 128.013 52.7105C127.963 52.674 127.92 52.6265 127.889 52.5713C127.857 52.5161 127.837 52.4544 127.83 52.3903C127.781 51.8426 127.862 51.2905 128.066 50.784C128.273 50.1946 128.578 49.6488 128.967 49.1722C129.393 48.6502 129.895 48.203 130.455 47.8474C131.059 47.4616 131.728 47.2029 132.425 47.0856ZM135.129 59.1468C135.201 59.1347 135.275 59.1378 135.346 59.1558C135.417 59.1738 135.484 59.2064 135.543 59.2517C135.605 59.2944 135.657 59.3505 135.697 59.4161C135.737 59.4818 135.763 59.5555 135.774 59.6326L136.067 61.5259C136.09 61.6795 136.054 61.8363 135.968 61.9624C135.881 62.0885 135.751 62.1736 135.606 62.1994L133.851 62.503C133.705 62.5267 133.556 62.489 133.437 62.3981C133.376 62.3548 133.324 62.2985 133.286 62.2329C133.247 62.1672 133.221 62.0938 133.211 62.0172L132.918 60.1238C132.905 60.0479 132.907 59.9698 132.924 59.8947C132.941 59.8195 132.973 59.7491 133.017 59.6878C133.059 59.6237 133.112 59.5695 133.174 59.5286C133.237 59.4877 133.306 59.4611 133.379 59.4504L135.129 59.1468Z" fill="black"/>
</g>
<path d="M147.244 50.0609C147.315 50.1132 147.376 50.1803 147.422 50.2582C147.468 50.336 147.498 50.4229 147.511 50.5135C147.528 50.6033 147.527 50.6958 147.508 50.7851C147.489 50.8744 147.453 50.9586 147.401 51.0324L146.154 52.8816C146.104 52.9569 146.041 53.0206 145.967 53.069C145.893 53.1175 145.81 53.1495 145.724 53.1631C145.639 53.1807 145.551 53.1795 145.467 53.1595C145.382 53.1396 145.302 53.1013 145.232 53.0472L143.513 51.761C143.442 51.7094 143.381 51.6424 143.336 51.5643C143.291 51.4863 143.262 51.3991 143.251 51.3084C143.234 51.2186 143.236 51.1261 143.255 51.0368C143.274 50.9475 143.31 50.8633 143.361 50.7895L144.624 48.9403C144.726 48.7904 144.88 48.689 145.053 48.658C145.225 48.627 145.403 48.6689 145.546 48.7747L147.244 50.0609ZM154.496 37.536C155.123 37.9987 155.681 38.5567 156.152 39.192C156.612 39.7829 156.967 40.456 157.2 41.1792C157.417 41.8722 157.491 42.6065 157.415 43.332C157.326 44.1057 157.048 44.8418 156.608 45.4682C156.281 45.9747 155.86 46.4066 155.371 46.7378C154.941 47.0221 154.473 47.2379 153.983 47.3782C153.505 47.5097 153.018 47.5983 152.526 47.6431L151.132 47.7756C150.714 47.8108 150.3 47.8865 149.895 48.0019C149.522 48.0912 149.181 48.2903 148.91 48.576C148.788 48.7066 148.634 48.7984 148.465 48.841C148.384 48.8653 148.3 48.8689 148.218 48.8516C148.136 48.8344 148.059 48.7966 147.993 48.7416L146.474 47.6045C146.329 47.4952 146.229 47.3311 146.196 47.1463C146.176 47.0568 146.177 46.9637 146.198 46.8745C146.219 46.7853 146.26 46.7026 146.317 46.633C146.672 46.1477 147.115 45.7423 147.621 45.4406C148.077 45.1785 148.563 44.9799 149.068 44.85C149.554 44.7256 150.051 44.6462 150.55 44.6126C151.043 44.5795 151.504 44.5409 151.934 44.4967C152.327 44.4601 152.715 44.3787 153.092 44.2538C153.421 44.1383 153.705 43.9112 153.899 43.608C154.074 43.352 154.188 43.0551 154.231 42.7428C154.274 42.4305 154.244 42.1118 154.145 41.814C153.897 41.0783 153.423 40.4508 152.798 40.031C151.667 39.181 150.432 39.1534 149.094 39.9482C148.959 40.0385 148.81 40.1021 148.654 40.1359C148.572 40.1419 148.49 40.1308 148.413 40.1033C148.336 40.0759 148.264 40.0325 148.203 39.9758L146.589 38.767C146.531 38.7261 146.481 38.6733 146.442 38.6116C146.403 38.55 146.377 38.4808 146.364 38.4082C146.351 38.333 146.354 38.256 146.371 38.1819C146.388 38.1078 146.419 38.0382 146.463 37.9776C146.844 37.4636 147.339 37.0561 147.904 36.7908C148.547 36.4843 149.234 36.2975 149.937 36.2388C150.711 36.1707 151.49 36.236 152.243 36.432C153.056 36.6384 153.822 37.0138 154.496 37.536Z" fill="#1CA4AC"/>
<g opacity="0.6">
<path d="M147.244 50.0609C147.315 50.1132 147.376 50.1803 147.422 50.2582C147.468 50.336 147.498 50.4229 147.511 50.5135C147.528 50.6033 147.527 50.6958 147.508 50.7851C147.489 50.8744 147.453 50.9586 147.401 51.0324L146.154 52.8816C146.104 52.9569 146.041 53.0206 145.967 53.069C145.893 53.1175 145.81 53.1495 145.724 53.1631C145.639 53.1807 145.551 53.1795 145.467 53.1595C145.382 53.1396 145.302 53.1013 145.232 53.0472L143.513 51.761C143.442 51.7094 143.381 51.6424 143.336 51.5643C143.291 51.4863 143.262 51.3991 143.251 51.3084C143.234 51.2186 143.236 51.1261 143.255 51.0368C143.274 50.9475 143.31 50.8633 143.361 50.7895L144.624 48.9403C144.726 48.7904 144.88 48.689 145.053 48.658C145.225 48.627 145.403 48.6689 145.546 48.7747L147.244 50.0609ZM154.496 37.536C155.123 37.9987 155.681 38.5567 156.152 39.192C156.612 39.7829 156.967 40.456 157.2 41.1792C157.417 41.8722 157.491 42.6065 157.415 43.332C157.326 44.1057 157.048 44.8418 156.608 45.4682C156.281 45.9747 155.86 46.4066 155.371 46.7378C154.941 47.0221 154.473 47.2379 153.983 47.3782C153.505 47.5097 153.018 47.5983 152.526 47.6431L151.132 47.7756C150.714 47.8108 150.3 47.8865 149.895 48.0019C149.522 48.0912 149.181 48.2903 148.91 48.576C148.788 48.7066 148.634 48.7984 148.465 48.841C148.384 48.8653 148.3 48.8689 148.218 48.8516C148.136 48.8344 148.059 48.7966 147.993 48.7416L146.474 47.6045C146.329 47.4952 146.229 47.3311 146.196 47.1463C146.176 47.0568 146.177 46.9637 146.198 46.8745C146.219 46.7853 146.26 46.7026 146.317 46.633C146.672 46.1477 147.115 45.7423 147.621 45.4406C148.077 45.1785 148.563 44.9799 149.068 44.85C149.554 44.7256 150.051 44.6462 150.55 44.6126C151.043 44.5795 151.504 44.5409 151.934 44.4967C152.327 44.4601 152.715 44.3787 153.092 44.2538C153.421 44.1383 153.705 43.9112 153.899 43.608C154.074 43.352 154.188 43.0551 154.231 42.7428C154.274 42.4305 154.244 42.1118 154.145 41.814C153.897 41.0783 153.423 40.4508 152.798 40.031C151.667 39.181 150.432 39.1534 149.094 39.9482C148.959 40.0385 148.81 40.1021 148.654 40.1359C148.572 40.1419 148.49 40.1308 148.413 40.1033C148.336 40.0759 148.264 40.0325 148.203 39.9758L146.589 38.767C146.531 38.7261 146.481 38.6733 146.442 38.6116C146.403 38.55 146.377 38.4808 146.364 38.4082C146.351 38.333 146.354 38.256 146.371 38.1819C146.388 38.1078 146.419 38.0382 146.463 37.9776C146.844 37.4636 147.339 37.0561 147.904 36.7908C148.547 36.4843 149.234 36.2975 149.937 36.2388C150.711 36.1707 151.49 36.236 152.243 36.432C153.056 36.6384 153.822 37.0138 154.496 37.536Z" fill="white"/>
</g>
<path d="M108.222 98.9239H89.604V51.4078C89.604 47.2808 91.1603 43.3228 93.9305 40.4046C96.7007 37.4863 100.458 35.8469 104.376 35.8469H106.094C110.012 35.8469 113.769 37.4863 116.539 40.4046C119.31 43.3228 120.866 47.2808 120.866 51.4078V85.6318C120.859 89.1596 119.524 92.5404 117.153 95.0324C114.783 97.5244 111.571 98.9239 108.222 98.9239Z" fill="#263238"/>
<path d="M87.791 213.315C87.4616 215.284 87.2864 217.278 87.267 219.276C87.1988 222.898 86.57 224.184 86.4862 227.154C86.3866 230.548 86.9473 231.818 88.2521 233.728C89.5568 235.638 92.9681 237.366 94.4458 234.142C95.9234 230.918 95.7086 228.804 95.2422 225.475C94.7654 222.031 94.7182 220.127 94.4248 217.505C94.1838 215.192 93.9008 213.431 93.9008 213.431L87.791 213.315Z" fill="#263238"/>
<path d="M97.5478 189.264L86.2294 189.049C86.3971 197.009 87.5971 205.846 87.8014 213.337C87.8434 214.745 87.77 224.261 88.2731 227.137C89.0329 231.487 93.927 230.896 94.189 228.296C94.451 225.696 93.8746 214.584 93.8903 213.436C93.8432 208.645 95.9863 200.558 97.092 191.958C97.1391 191.544 97.4954 189.678 97.5478 189.264Z" fill="#FFA8A7"/>
<path d="M112.089 207.121C112.089 207.121 111.643 206.868 111.565 207.37C111.455 207.966 111.287 209.197 111.041 210.18C110.716 211.543 110.443 213.79 110.637 214.905C110.831 216.02 113.294 217.444 114.892 217.963C116.862 218.603 118.658 219.729 120.132 221.247C121.704 222.815 125.126 224.294 127.468 224.278C130.219 224.278 132.137 223.312 133.044 221.76C133.95 220.209 132.216 220.022 129.072 217.896L126.635 216.24C121.652 212.813 119.823 210.98 118.424 207.552L112.089 207.121Z" fill="#263238"/>
<path d="M118.466 204.996C118.382 202.534 119.996 181.608 119.996 181.608L109.249 186.769C111.549 201.243 112.042 204.66 112.078 207.028C112.031 207.226 112.012 207.431 112.021 207.635C112.021 210.444 115.044 211.962 117.392 213.839C119.387 215.486 121.514 216.949 123.748 218.211C125.456 219.111 128.925 219.194 129.355 218.04C126.494 215.738 122.333 212.294 120.059 209.666C118.948 208.43 118.55 207.464 118.466 204.996Z" fill="#FFA8A7"/>
<path d="M90.8669 111.592C86.7377 121.136 86.7377 128.522 87.4242 140.705C88.032 151.883 89.0433 161.736 89.0433 161.736C88.8861 163.718 86.2714 167.587 85.9308 176.353C85.6164 184.545 86.4548 194.961 86.4548 194.961C86.4548 194.961 92.3288 198.389 96.6728 194.928C96.6728 194.928 100.865 173.847 102.091 163.591C103.139 154.643 105.025 143.211 105.025 143.211L108.992 163.53C108.136 166.413 107.515 169.368 107.137 172.362C106.582 178.395 109.788 190.241 109.788 190.241C109.788 190.241 115.856 192.146 119.561 188.685C119.561 188.685 120.944 169.425 121.463 162.161C122.155 152.429 120.698 126.088 119.561 112.139L90.8669 111.592Z" fill="#455A64"/>
<path d="M105.036 143.194L106.665 127.882C106.665 127.882 113.97 126.855 117.282 123.576C116.334 125.138 115.071 126.462 113.583 127.452C112.095 128.442 110.419 129.075 108.672 129.306L106.314 143.553L108.992 163.53L105.036 143.194Z" fill="#263238"/>
<path d="M134.616 107.828C134.917 105.033 135.05 102.222 135.014 99.4097C134.851 96.9809 134.437 96.5834 131.215 92.2834C126.866 86.4708 123.15 81.2434 119.22 76.049C116.412 72.3396 113.456 71.771 110.585 71.9366C108.573 72.0526 112.503 82.248 114.478 88.2814L125.76 101.077C126.11 101.582 126.27 102.205 126.211 102.827L125.529 113.712L128.909 118.481C128.909 118.481 134.029 113.833 134.616 107.828Z" fill="#FFA8A7"/>
<path d="M99.7067 72.2678C97.5216 72.4279 93.5497 72.8198 93.5497 72.8198C91.2598 74.1667 90.6782 75.2762 90.2538 78.4778C90.0704 79.8468 91.1288 83.4845 92.0354 88.6567L93.7541 98.245L93.5654 103.003C92.6746 105.907 90.6572 109.511 88.8756 114.827C97.6264 119.972 104.962 120.165 111.617 119.243C116.69 118.553 119.378 117.261 120.274 115.981C120.085 110.731 119.75 107.485 119.645 101.999C119.608 99.6967 119.739 97.3673 119.828 94.7177C123.229 91.77 123.271 86.8682 121.4 83.6777C117.088 76.3195 112.891 71.6882 110.113 71.9256L99.7067 72.2678Z" fill="#1CA4AC"/>
<path opacity="0.6" d="M99.7067 72.2678C97.5216 72.4279 93.5497 72.8198 93.5497 72.8198C91.2598 74.1667 90.6782 75.2762 90.2538 78.4778C90.0704 79.8468 91.1288 83.4845 92.0354 88.6567L93.7541 98.245L93.5654 103.003C92.6746 105.907 90.6572 109.511 88.8756 114.827C97.6264 119.972 104.962 120.165 111.617 119.243C116.69 118.553 119.378 117.261 120.274 115.981C120.085 110.731 119.75 107.485 119.645 101.999C119.608 99.6967 119.739 97.3673 119.828 94.7177C123.229 91.77 123.271 86.8682 121.4 83.6777C117.088 76.3195 112.891 71.6882 110.113 71.9256L99.7067 72.2678Z" fill="white"/>
<path opacity="0.1" d="M113.053 94.7894C113.053 94.7894 109.06 98.0573 104.496 96.3516C103.214 95.9262 102.059 95.1595 101.141 94.1258C100.223 93.092 99.5737 91.8262 99.2561 90.4507C99.2561 90.4507 98.774 95.9431 104.522 97.8144C110.092 99.6194 113.053 94.7894 113.053 94.7894Z" fill="black"/>
<path d="M118.471 57.1927C118.298 65.1636 115.851 67.1287 114.615 67.6807C113.378 68.2327 111.009 67.9015 108.704 67.4986V72.312C108.704 72.312 111.366 75.2486 111.167 77.4401C110.967 79.6315 106.975 79.8799 103.998 77.7326C102.356 76.5443 100.871 75.1317 99.581 73.5319C99.3333 73.2233 99.1978 72.832 99.1984 72.4279V61.1671C99.1984 61.1671 97.9356 62.5747 95.7034 60.9629C95.2217 60.6391 94.8093 60.2132 94.4923 59.7124C94.1754 59.2116 93.9608 58.6468 93.8622 58.054C93.7636 57.4611 93.7832 56.8531 93.9198 56.2686C94.0563 55.6842 94.3068 55.136 94.6554 54.659C95.63 53.4502 98.1033 53.3674 99.2875 55.211C99.9582 56.5855 100.047 57.971 100.797 57.419C102.788 55.9066 101.719 52.451 104.124 50.795C104.913 50.3611 105.733 49.992 106.576 49.691C110.868 48.1289 114.588 46.8151 115.484 43.7239C117.172 44.7396 118.681 47.7922 118.471 57.1927Z" fill="#FFA8A7"/>
<path d="M110.009 64.3135C110.558 64.3135 111.004 63.844 111.004 63.2647C111.004 62.6855 110.558 62.2159 110.009 62.2159C109.459 62.2159 109.013 62.6855 109.013 63.2647C109.013 63.844 109.459 64.3135 110.009 64.3135Z" fill="#B16668"/>
<path d="M109.348 55.9838C109.348 56.1998 109.288 56.4109 109.175 56.5911C109.062 56.7712 108.901 56.9125 108.713 56.9975C108.524 57.0824 108.316 57.1073 108.114 57.0689C107.913 57.0306 107.726 56.9308 107.578 56.7819C107.429 56.633 107.325 56.4415 107.279 56.2311C107.233 56.0207 107.247 55.8006 107.318 55.5982C107.389 55.3958 107.515 55.2198 107.681 55.0921C107.846 54.9644 108.043 54.8906 108.248 54.8798C108.39 54.8724 108.532 54.8954 108.665 54.9475C108.798 54.9996 108.92 55.0797 109.023 55.183C109.126 55.2863 109.208 55.4105 109.264 55.5482C109.32 55.6859 109.348 55.8341 109.348 55.9838Z" fill="#263238"/>
<path d="M117.287 56.0942C117.298 56.2293 117.283 56.3653 117.243 56.4942C117.203 56.6231 117.14 56.7424 117.056 56.8452C116.972 56.9479 116.87 57.0321 116.754 57.0927C116.639 57.1533 116.514 57.1892 116.386 57.1982C116.256 57.2108 116.126 57.1943 116.003 57.1496C115.88 57.105 115.767 57.0333 115.672 56.9393C115.578 56.8454 115.503 56.7313 115.454 56.6046C115.404 56.4779 115.381 56.3416 115.385 56.2046C115.371 56.0686 115.384 55.9311 115.423 55.8005C115.462 55.6699 115.525 55.549 115.61 55.4453C115.695 55.3415 115.798 55.2571 115.915 55.1971C116.032 55.1371 116.159 55.1029 116.289 55.0965C116.418 55.0901 116.548 55.1117 116.67 55.1599C116.791 55.2081 116.902 55.282 116.995 55.3769C117.089 55.4719 117.163 55.586 117.213 55.7122C117.263 55.8384 117.288 55.974 117.287 56.1108V56.0942Z" fill="#263238"/>
<path d="M108.002 58.8211C107.098 58.8211 106.231 58.4433 105.591 57.7706C104.952 57.0978 104.592 56.1852 104.59 55.2331C104.59 52.7933 106.98 52.7933 108.002 52.7933C109.023 52.7933 111.408 52.7933 111.408 55.2331C111.406 56.1843 111.047 57.096 110.409 57.7686C109.77 58.4412 108.905 58.8197 108.002 58.8211ZM108.002 53.3563C105.906 53.3563 105.13 53.9083 105.13 55.2331C105.13 56.0383 105.434 56.8105 105.974 57.3799C106.515 57.9493 107.248 58.2691 108.012 58.2691C108.776 58.2691 109.51 57.9493 110.05 57.3799C110.591 56.8105 110.894 56.0383 110.894 55.2331C110.873 53.8807 110.066 53.3563 108.002 53.3563Z" fill="#455A64"/>
<path d="M116.653 58.8211C115.749 58.8211 114.882 58.4433 114.243 57.7706C113.603 57.0978 113.243 56.1852 113.242 55.2331C113.242 52.7933 115.631 52.7933 116.653 52.7933C117.675 52.7933 120.059 52.7933 120.059 55.2331C120.057 56.1843 119.698 57.096 119.06 57.7686C118.421 58.4412 117.556 58.8197 116.653 58.8211ZM116.653 53.3563C114.588 53.3563 113.781 53.9083 113.781 55.2331C113.781 56.0383 114.085 56.8105 114.625 57.3799C115.166 57.9493 115.899 58.2691 116.663 58.2691C117.428 58.2691 118.161 57.9493 118.701 57.3799C119.242 56.8105 119.545 56.0383 119.545 55.2331C119.524 53.8807 118.717 53.3563 116.653 53.3563Z" fill="#455A64"/>
<path d="M111.937 54.0739L112.105 60.7807L115.453 59.6878L111.937 54.0739Z" fill="#F28F8F"/>
<path d="M108.699 67.5151C106.267 67.1784 101.263 65.6659 100.482 63.5794C100.796 64.6339 101.409 65.5622 102.238 66.24C103.731 67.5924 108.699 69.1104 108.699 69.1104V67.5151Z" fill="#F28F8F"/>
<path d="M108.819 50.8171L106.597 52.2468C106.422 51.9255 106.371 51.5455 106.455 51.1857C106.539 50.8259 106.751 50.514 107.048 50.3148C107.195 50.2211 107.358 50.1597 107.527 50.1343C107.697 50.1088 107.87 50.1199 108.036 50.1669C108.201 50.2138 108.356 50.2957 108.491 50.4074C108.625 50.5192 108.737 50.6586 108.819 50.8171Z" fill="#263238"/>
<path d="M117.858 52.4069L115.385 51.4961C115.433 51.3234 115.514 51.1629 115.622 51.0243C115.731 50.8858 115.866 50.7722 116.018 50.6905C116.17 50.6088 116.337 50.5608 116.507 50.5493C116.678 50.5379 116.848 50.5633 117.009 50.6239C117.341 50.7495 117.614 51.0047 117.772 51.3366C117.93 51.6685 117.961 52.0517 117.858 52.4069Z" fill="#263238"/>
<path d="M111.14 55.5202C111.105 55.5202 111.07 55.5127 111.037 55.4982C111.004 55.4837 110.974 55.4625 110.95 55.4358C110.925 55.409 110.905 55.3773 110.892 55.3425C110.879 55.3078 110.872 55.2705 110.873 55.2331C110.873 54.775 111.733 54.4769 112.508 54.4769C113.284 54.4769 113.781 54.775 113.781 55.2331C113.765 55.2931 113.731 55.3459 113.683 55.3834C113.636 55.421 113.579 55.4413 113.519 55.4413C113.46 55.4413 113.403 55.421 113.355 55.3834C113.308 55.3459 113.274 55.2931 113.257 55.2331C113.257 55.1779 112.99 55.0399 112.524 55.0399C112.148 55.0315 111.775 55.099 111.423 55.2386C111.423 55.277 111.416 55.3151 111.402 55.3503C111.387 55.3856 111.366 55.4174 111.34 55.4438C111.313 55.4702 111.282 55.4905 111.248 55.5037C111.213 55.5168 111.177 55.5224 111.14 55.5202Z" fill="#455A64"/>
<path d="M104.868 55.2773H104.837L98.8474 54.7253C98.5675 54.4331 98.2341 54.2039 97.8675 54.0518L104.9 54.7363C104.97 54.746 105.034 54.7843 105.078 54.8431C105.122 54.9019 105.143 54.9765 105.135 55.051C105.123 55.1157 105.09 55.1739 105.041 55.2152C104.992 55.2566 104.931 55.2786 104.868 55.2773Z" fill="#455A64"/>
<path d="M80.2768 61.8571C82.2366 59.0971 83.5728 57.0161 85.3596 54.6811C86.3762 53.3398 87.0259 52.3793 87.9796 51.0048C88.6503 50.0554 89.0276 49.255 89.7927 48.9624C90.6192 48.6056 91.3641 48.0674 91.9777 47.3837C92.3549 46.9441 92.705 46.4794 93.0257 45.9926C94.1488 44.4002 95.4829 42.9855 96.9872 41.7919C98.5592 40.5444 100.315 39.5839 101.934 38.3971C102.898 37.685 103.93 36.5038 102.756 35.3998C102.396 35.0804 101.966 34.862 101.504 34.765C98.6483 34.1136 96.1645 35.1458 93.3716 35.8966C92.1584 36.2155 90.972 36.6383 89.8241 37.1606C89.2595 37.3959 88.73 37.7156 88.2521 38.1101C87.5839 38.8198 87.0362 39.6451 86.6329 40.5499C85.412 42.8462 82.792 44.8997 80.958 46.7158C78.8149 48.841 76.897 50.7895 74.4499 53.13C72.2491 55.2442 70.0955 57.1872 68.0781 59.4946C66.4065 61.399 67.0301 62.8894 67.2502 63.4082C68.6126 66.3559 70.1374 67.4158 71.9662 69.2429C75.1102 72.4058 85.9832 81.5083 89.5831 84.5167C90.3565 85.1567 90.9639 85.9921 91.3489 86.9455L92.0406 88.6291C96.1488 89.424 98.8893 82.927 95.4885 75.1051C94.9254 73.8403 94.065 72.7478 92.9891 71.9311C88.6923 68.6357 80.2768 61.8571 80.2768 61.8571Z" fill="#FFA8A7"/>
<path d="M80.2768 61.8571C78.9692 63.5516 77.2267 64.8144 75.2569 65.4948C75.2569 65.4948 77.8769 66.2014 81.4663 62.8066L80.2768 61.8571Z" fill="#F28F8F"/>
<path d="M133.547 102.07L132.876 101.463C132.776 101.394 132.661 101.35 132.542 101.335C132.423 101.321 132.302 101.336 132.189 101.38L124.911 103.467C124.545 103.596 124.209 103.806 123.926 104.085C123.644 104.363 123.422 104.702 123.276 105.079L118.036 120.993C117.973 121.123 117.948 121.269 117.965 121.414C117.982 121.558 118.04 121.695 118.131 121.804L118.822 122.434C118.923 122.507 119.039 122.553 119.16 122.568C119.282 122.584 119.405 122.568 119.519 122.522L126.808 120.435C127.175 120.307 127.511 120.096 127.793 119.818C128.075 119.54 128.297 119.2 128.443 118.824C129.491 115.694 132.635 106.039 133.683 102.909C133.809 102.517 133.746 102.219 133.547 102.07Z" fill="#455A64"/>
<path d="M118.723 121.606L123.963 105.691C124.108 105.315 124.33 104.976 124.612 104.699C124.895 104.421 125.231 104.212 125.598 104.085L132.871 101.999C133.547 101.805 133.919 102.214 133.678 102.909C132.63 106.039 129.486 115.694 128.438 118.824C128.291 119.2 128.07 119.54 127.787 119.818C127.505 120.096 127.169 120.307 126.803 120.435L119.53 122.544C118.859 122.71 118.497 122.301 118.723 121.606Z" fill="#1CA4AC"/>
<path d="M124.806 104.527C124.428 104.829 124.135 105.233 123.957 105.697L118.717 121.606C118.657 121.732 118.632 121.874 118.645 122.014C118.658 122.155 118.709 122.289 118.791 122.4L118.141 121.815C118.048 121.707 117.989 121.571 117.971 121.426C117.953 121.281 117.978 121.134 118.041 121.004L123.281 105.09C123.447 104.657 123.716 104.277 124.062 103.986L124.806 104.527Z" fill="#37474F"/>
<path d="M131.55 109.324C131.026 110.941 129.208 112.023 126.2 112.774C123.192 113.524 121.531 116.886 122.008 117.907C122.485 118.928 127.348 119.883 129.292 119.591C131.236 119.298 133.185 116.34 133.777 115.423C134.369 114.507 135.051 108.115 134.427 107.237C133.803 106.359 132.488 106.497 132.488 106.497L131.55 109.324Z" fill="#F28F8F"/>
</svg>
